<svg width="183" height="102" viewBox="0 0 183 102" fill="none" xmlns="http://www.w3.org/2000/svg">
<g clip-path="url(#clip0_19_2)">
<path d="M153.575 95.3789L16.3213 75.6992L130.756 8.42285L153.575 95.3789Z" stroke="#FFB400" stroke-width="11"/>
<path d="M25.8962 71V49.1818H34.5042C36.159 49.1818 37.5688 49.4979 38.7336 50.13C39.8983 50.755 40.7861 51.625 41.3969 52.7401C42.0148 53.848 42.3238 55.1264 42.3238 56.5753C42.3238 58.0241 42.0113 59.3026 41.3863 60.4105C40.7613 61.5185 39.8557 62.3814 38.6696 62.9993C37.4907 63.6172 36.0631 63.9261 34.387 63.9261H28.9005V60.2294H33.6412C34.529 60.2294 35.2606 60.0767 35.8358 59.7713C36.4182 59.4588 36.8515 59.0291 37.1356 58.4822C37.4267 57.9283 37.5723 57.2926 37.5723 56.5753C37.5723 55.8509 37.4267 55.2187 37.1356 54.679C36.8515 54.1321 36.4182 53.7095 35.8358 53.4112C35.2535 53.1058 34.5148 52.9531 33.6199 52.9531H30.5091V71H25.8962ZM49.933 49.1818V71H45.32V49.1818H49.933ZM53.4939 71V68.2621L64.3816 52.9851H53.4726V49.1818H70.1771V51.9197L59.2787 67.1967H70.1984V71H53.4939ZM73.5036 71V68.2621L84.3914 52.9851H73.4823V49.1818H90.1869V51.9197L79.2884 67.1967H90.2082V71H73.5036ZM97.5084 71H92.5652L100.097 49.1818H106.042L113.563 71H108.62L103.155 54.1676H102.984L97.5084 71ZM97.1995 62.424H108.876V66.0249H97.1995V62.424ZM123.133 71V49.1818H131.868C133.474 49.1818 134.812 49.4197 135.885 49.8956C136.957 50.3714 137.763 51.032 138.303 51.8771C138.843 52.7152 139.113 53.6811 139.113 54.7749C139.113 55.6271 138.942 56.3764 138.601 57.0227C138.26 57.6619 137.792 58.1875 137.195 58.5994C136.606 59.0043 135.931 59.2919 135.171 59.4624V59.6754C136.002 59.7109 136.78 59.9453 137.504 60.3786C138.236 60.8118 138.829 61.419 139.283 62.2003C139.738 62.9744 139.965 63.8977 139.965 64.9702C139.965 66.1278 139.677 67.1612 139.102 68.0703C138.534 68.9723 137.692 69.6861 136.577 70.2116C135.462 70.7372 134.088 71 132.454 71H123.133ZM127.746 67.2287H131.506C132.792 67.2287 133.729 66.9837 134.319 66.4936C134.908 65.9964 135.203 65.3359 135.203 64.5121C135.203 63.9084 135.057 63.3757 134.766 62.9141C134.475 62.4524 134.059 62.0902 133.52 61.8274C132.987 61.5646 132.351 61.4332 131.613 61.4332H127.746V67.2287ZM127.746 58.3118H131.165C131.797 58.3118 132.358 58.2017 132.849 57.9815C133.346 57.7543 133.736 57.4347 134.02 57.0227C134.312 56.6108 134.457 56.1172 134.457 55.5419C134.457 54.7536 134.177 54.1179 133.616 53.6349C133.062 53.152 132.273 52.9105 131.251 52.9105H127.746V58.3118ZM146.727 71H141.784L149.316 49.1818H155.261L162.782 71H157.839L152.374 54.1676H152.203L146.727 71ZM146.418 62.424H158.094V66.0249H146.418V62.424ZM161.903 49.1818H167.07L172.045 58.5781H172.258L177.233 49.1818H182.4L174.442 63.2869V71H169.861V63.2869L161.903 49.1818Z" fill="black"/>
</g>
<defs>
<clipPath id="clip0_19_2">
<rect width="183" height="102" fill="white"/>
</clipPath>
</defs>
</svg>
